<?xml version="1.0" standalone="no"?>
<!DOCTYPE svg PUBLIC "-//W3C//DTD SVG 20010904//EN"
 "http://www.w3.org/TR/2001/REC-SVG-20010904/DTD/svg10.dtd">
<svg version="1.0" xmlns="http://www.w3.org/2000/svg"
 width="568.000000pt" height="568.000000pt" viewBox="0 0 568.000000 568.000000"
 preserveAspectRatio="xMidYMid meet">
<metadata>
Created by potrace 1.11, written by Peter Selinger 2001-2013
</metadata>
<g transform="translate(0.000000,568.000000) scale(0.100000,-0.100000)"
fill="#000000" stroke="none">
<path d="M3566 4854 c-8 -7 -16 -10 -20 -7 -3 3 -9 -3 -13 -13 -4 -10 -11 -23
-15 -29 -5 -5 -15 -18 -22 -29 -11 -16 -16 -17 -37 -6 -13 7 -28 19 -34 26 -8
11 -14 10 -29 -1 -11 -8 -16 -15 -11 -15 5 0 -1 -7 -13 -16 -12 -8 -22 -20
-22 -27 0 -6 -12 -22 -27 -34 -14 -13 -23 -23 -19 -23 7 0 -4 -14 -46 -61 -15
-16 -25 -29 -22 -29 5 0 -8 -17 -38 -51 -10 -10 -18 -22 -18 -25 0 -4 -10 -15
-22 -25 -11 -11 -17 -19 -13 -19 5 0 0 -8 -11 -19 -10 -10 -28 -31 -39 -47
-11 -15 -28 -36 -37 -46 -10 -10 -15 -18 -11 -18 3 0 -4 -9 -17 -20 -13 -11
-19 -20 -15 -20 4 0 -2 -8 -13 -19 -12 -10 -22 -23 -22 -29 0 -5 -7 -12 -15
-16 -8 -3 -15 -10 -15 -16 0 -6 -6 -17 -12 -24 -7 -7 -22 -25 -33 -41 -11 -15
-29 -36 -39 -46 -11 -11 -16 -19 -10 -19 5 0 3 -4 -4 -9 -10 -6 -4 -16 23 -40
32 -28 35 -34 23 -49 -7 -9 -17 -20 -23 -24 -5 -4 -10 -12 -10 -18 0 -6 -5
-14 -10 -18 -6 -4 -26 -27 -45 -52 -49 -63 -72 -90 -97 -117 -12 -13 -19 -23
-16 -23 4 0 -2 -7 -13 -15 -10 -8 -16 -15 -12 -15 4 0 -3 -10 -15 -23 -12 -12
-35 -40 -52 -61 -16 -22 -38 -48 -47 -58 -10 -10 -17 -20 -15 -22 1 -1 -18
-27 -43 -56 -25 -29 -49 -60 -54 -69 -5 -8 -18 -25 -28 -35 -10 -11 -18 -24
-18 -28 0 -5 -4 -6 -10 -3 -5 3 -10 1 -10 -4 0 -18 -3 -23 -47 -70 -24 -25
-43 -51 -43 -56 0 -6 -9 -16 -21 -23 -12 -7 -19 -16 -16 -18 3 -3 -7 -18 -21
-34 -31 -32 -63 -71 -77 -93 -5 -8 -23 -32 -40 -53 -42 -53 -205 -264 -235
-304 -14 -17 -71 -94 -127 -169 -56 -75 -106 -141 -111 -147 -5 -5 -22 -29
-37 -52 -15 -23 -32 -42 -37 -42 -5 0 -7 -4 -4 -8 3 -5 -6 -20 -20 -35 -13
-14 -24 -29 -24 -32 0 -6 -69 -99 -94 -125 -7 -8 -16 -25 -20 -37 -4 -11 -14
-24 -22 -27 -8 -3 -12 -10 -9 -16 3 -5 1 -10 -4 -10 -6 0 -11 -5 -11 -10 0 -6
-11 -23 -24 -37 -13 -14 -30 -37 -38 -52 -7 -14 -17 -31 -23 -38 -5 -7 -16
-19 -23 -27 -7 -9 -13 -19 -14 -23 -1 -8 -68 -113 -78 -123 -10 -10 -31 -45
-36 -62 -4 -10 -10 -18 -14 -18 -4 0 -13 -13 -20 -30 -7 -16 -16 -30 -20 -30
-4 0 -11 -11 -14 -25 -4 -14 -11 -25 -17 -25 -6 0 -7 -4 -4 -10 3 -5 1 -10 -4
-10 -6 0 -11 -7 -11 -15 0 -8 -5 -15 -11 -15 -5 0 -7 -5 -4 -10 3 -6 1 -10 -4
-10 -6 0 -11 -6 -11 -13 0 -7 -11 -24 -24 -39 -14 -14 -23 -28 -20 -31 2 -2
-14 -34 -36 -70 -22 -37 -40 -71 -40 -77 0 -5 -4 -10 -9 -10 -5 0 -12 -12 -16
-27 -3 -15 -10 -30 -14 -33 -4 -3 -33 -59 -65 -125 -32 -66 -61 -127 -65 -135
-8 -14 17 -92 31 -98 4 -2 4 -10 1 -18 -3 -8 0 -14 6 -14 6 0 11 -6 11 -13 0
-16 86 -108 94 -100 3 4 6 2 6 -4 0 -14 67 -40 110 -44 98 -6 155 33 209 144
12 25 21 48 19 49 -1 2 7 18 20 35 13 18 24 42 25 53 1 11 5 20 9 20 4 0 8 4
8 10 0 5 13 37 29 69 16 33 26 62 23 65 -3 4 0 6 6 6 7 0 12 5 12 10 0 6 7 27
16 48 10 20 18 44 20 52 2 8 8 16 13 18 6 2 11 12 11 22 0 10 7 26 16 34 8 9
13 16 10 16 -3 0 24 58 60 130 36 71 64 131 62 134 -2 2 5 12 14 22 9 11 18
26 20 34 2 8 6 17 9 20 10 8 63 114 61 123 -1 4 2 7 6 7 5 0 22 26 37 58 16
31 33 60 38 63 5 3 7 9 5 12 -1 4 5 15 14 26 9 11 14 22 11 25 -4 3 -1 6 6 6
7 0 10 4 6 9 -3 5 1 15 8 23 17 17 87 136 87 149 0 5 5 9 10 9 6 0 10 6 10 14
0 8 6 21 13 28 7 7 19 26 27 42 29 57 35 66 42 66 5 0 8 5 8 11 0 6 14 30 30
54 17 24 30 48 30 53 0 5 9 17 20 27 11 10 20 24 20 32 0 7 5 13 11 13 5 0 8
4 5 8 -3 5 8 24 25 43 16 19 29 40 29 47 0 7 7 15 15 18 8 4 13 10 10 14 -3 5
0 14 7 22 7 7 47 65 88 128 41 63 78 117 83 118 4 2 7 8 7 14 0 6 10 23 23 38
30 38 77 108 80 117 2 8 22 35 45 58 6 8 12 16 12 19 0 8 118 162 136 177 8 6
14 16 14 22 0 5 11 20 26 33 14 13 22 24 19 24 -4 0 0 6 7 14 7 8 24 28 38 46
14 17 35 44 47 58 13 15 23 31 23 35 0 5 5 5 10 2 6 -3 10 1 10 9 0 9 9 21 20
28 11 7 20 17 20 21 0 5 25 39 56 75 30 37 62 76 70 87 50 68 74 97 74 90 0
-4 9 3 19 16 l20 24 29 -32 c17 -17 27 -34 24 -37 -3 -3 2 -6 11 -6 9 0 17 -4
17 -8 0 -5 16 -25 35 -45 19 -20 35 -39 35 -43 0 -6 13 -21 63 -75 9 -10 17
-26 17 -34 0 -8 4 -15 10 -15 5 0 16 -13 25 -29 8 -16 20 -35 27 -43 15 -15
53 -82 100 -178 18 -36 36 -66 41 -68 4 -2 7 -9 7 -17 0 -7 9 -34 21 -61 11
-27 24 -58 29 -69 17 -40 22 -61 27 -95 2 -19 8 -39 14 -44 5 -6 9 -20 9 -33
0 -13 3 -23 8 -23 7 0 31 -62 36 -93 3 -24 27 -39 41 -27 7 5 21 11 32 13 12
2 28 9 37 16 9 7 16 10 16 5 0 -4 5 -3 12 4 7 7 20 12 30 12 10 0 18 4 18 8 0
4 10 8 22 9 11 1 24 6 27 10 3 4 43 26 89 48 45 21 82 42 82 46 0 4 11 10 25
13 14 4 25 11 25 16 0 6 6 10 14 10 7 0 19 7 26 15 7 8 16 12 21 9 5 -3 9 -1
9 4 0 5 17 21 38 34 128 85 331 309 412 453 41 72 90 173 90 184 0 6 5 11 10
11 6 0 9 3 8 8 -1 4 6 32 17 62 11 30 20 57 20 60 0 3 6 15 13 26 6 12 9 24 5
27 -3 4 -1 12 5 19 6 7 11 16 11 21 1 4 1 8 2 10 5 16 31 135 34 157 2 14 6
36 9 50 8 36 18 101 20 136 2 17 6 36 10 42 3 6 2 13 -4 17 -6 4 -8 10 -6 13
5 8 -29 11 -234 16 -80 2 -170 7 -200 11 -30 4 -64 9 -75 10 -11 1 -20 3 -20
4 0 1 -16 4 -35 7 -19 2 -46 7 -60 10 -14 4 -34 9 -45 11 -37 8 -50 11 -50 13
0 1 -7 3 -15 5 -75 19 -125 36 -128 44 -2 6 -10 7 -18 4 -8 -3 -14 0 -14 7 0
6 -4 9 -8 6 -7 -4 -49 11 -94 35 -10 5 -24 9 -32 9 -7 0 -19 7 -26 15 -7 8
-16 13 -20 10 -5 -3 -10 -2 -12 3 -1 4 -25 18 -51 30 l-48 22 18 30 c9 17 22
30 27 30 5 0 6 3 3 7 -4 3 -2 12 3 18 14 17 15 55 2 85 -9 24 -72 96 -72 84 0
-4 -7 -1 -15 6 -21 18 -113 21 -129 4z"/>
</g>
</svg>
