<?xml version="1.0" encoding="UTF-8" standalone="no"?>
<svg
   xmlns:dc="http://purl.org/dc/elements/1.1/"
   xmlns:cc="http://creativecommons.org/ns#"
   xmlns:rdf="http://www.w3.org/1999/02/22-rdf-syntax-ns#"
   xmlns:svg="http://www.w3.org/2000/svg"
   xmlns="http://www.w3.org/2000/svg"
   version="1.1"
   id="svg2827"
   height="157.66986"
   width="467.68204">
  <defs
     id="defs2829" />
  <metadata
     id="metadata2832">
    <rdf:RDF>
      <cc:Work
         rdf:about="">
        <dc:format>image/svg+xml</dc:format>
        <dc:type
           rdf:resource="http://purl.org/dc/dcmitype/StillImage" />
        <dc:title></dc:title>
      </cc:Work>
    </rdf:RDF>
  </metadata>
  <g
     transform="translate(-131.40091,-342.26982)"
     id="layer1">
    <g
       style="fill:#241f1c"
       transform="matrix(0,0.90117483,-0.89380131,0,614.00828,230.39292)"
       id="g5145">
      <path
         style="fill:#241f1c;fill-opacity:1;stroke:#000000;stroke-opacity:1"
         d="m 139.55611,68.354231 c 4.33626,129.466049 -12.62971,304.314689 14.09517,422.392169 11.72201,8.88574 26.45138,13.68045 37.37429,0.79743 10.92291,-12.88301 -20.44371,-52.24861 -30.11609,-233.90863 -3.20207,-55.42915 6.66329,-183.082703 2.27011,-191.918022 -4.39318,-8.835319 -21.72556,-6.505366 -23.62348,2.637053 z"
         id="path3617" />
      <path
         style="fill:#241f1c;stroke:#000000;stroke-width:0.44716159px;stroke-linecap:butt;stroke-linejoin:miter;stroke-opacity:1"
         d="m 131.62449,78.26767 0,79.85027 c 40.03161,1.55291 80.06322,9.35654 120.09483,39.92514 18.55622,-29.06075 26.48833,-53.89551 26.29936,-79.85028 C 277.83074,92.37868 267.62118,63.00876 251.71932,38.34253 212.4493,70.15886 172.60198,78.03782 131.62449,78.26767 Z"
         id="path2837" />
      <path
         style="color:#000000;font-style:normal;font-variant:normal;font-weight:normal;font-stretch:normal;font-size:medium;line-height:normal;font-family:'Bitstream Vera Sans';-inkscape-font-specification:'Bitstream Vera Sans';text-indent:0;text-align:start;text-decoration:none;text-decoration-line:none;letter-spacing:normal;word-spacing:normal;text-transform:none;direction:ltr;block-progression:tb;writing-mode:lr-tb;text-anchor:start;display:inline;overflow:visible;visibility:visible;fill:#241f1c;fill-opacity:1;stroke:#000000;stroke-width:0.44716159;stroke-miterlimit:4;stroke-dasharray:none;stroke-opacity:1;marker:none;enable-background:accumulate"
         d="M 260.81227,32.481226 242.61838,44.20525 c 14.92516,23.15121 24.41231,51.04027 24.57991,74.06113 0.17256,23.69994 -6.78985,46.06659 -24.59388,73.94935 l 18.23581,11.65415 c 19.3084,-30.23873 28.20888,-57.5476 28.00349,-85.75721 -0.20828,-28.60738 -11.15288,-59.45019 -28.03144,-85.631444 z"
         id="path2839" />
    </g>
  </g>
</svg>
